PathFileType	4	(X/Y/Z)	C:/Users/beibeiliu/ov580/test_trc/User3\sequence.27_training_dense_left.trc
DataRate	CameraRate	NumFrames	NumMarkers	Units	OrigDataRate	OrigDataStartFrame	OrigNumFrames
120	120	15	19	mm	120	1	276
Frame#	Time	ThumbCMC			ThumbMCP			ThumbIP			ThumbTip			IndexMCP			IndexPIP			IndexTip			MiddleMCP			MiddlePIP			MiddleTip			RingMCP			RingPIP			RingTip			PinkyMCP			PinkyPIP			PinkyTip			BackHand1			BackHand2			BackHand3	
		X0	Y0	Z0	X1	Y1	Z1	X2	Y2	Z2	X3	Y3	Z3	X4	Y4	Z4	X5	Y5	Z5	X6	Y6	Z6	X7	Y7	Z7	X8	Y8	Z8	X9	Y9	Z9	X10	Y10	Z10	X11	Y11	Z11	X12	Y12	Z12	X13	Y13	Z13	X14	Y14	Z14	X15	Y15	Z15	X16	Y16	Z16	X17	Y17	Z17	X18	Y18	Z18	
0	0	-144.398	-14.4531	20.1823	-126.703	-19.3252	-2.93322	-109.029	-22.1316	-28.3351	-101.54	-28.262	-53.2895	-160.71	1.01749	-57.5365	-153.04	-1.76395	-83.7703	-148.337	-10.1168	-114.035	-182.962	0.28955	-65.5998	-182.318	-5.20112	-94.529	-181.381	-20.4707	-124.062	-202.757	-8.12952	-60.9406	-206.283	-14.1141	-83.2909	-208.911	-30.7938	-107.074	-223.764	-18.1366	-46.2714	-226.523	-25.3984	-64.9984	-224.33	-38.4349	-87.9346	-204.152	5.57483	-8.58291	-206.829	4.22142	26.439	-173.348	8.12622	8.15834	
1	0.00833333	-146.894	-14.3363	17.836	-126.805	-17.4895	-3.95831	-115.264	-22.0493	-29.0112	-103.243	-28.2352	-52.5485	-162.38	1.57977	-59.0366	-155.702	-1.21971	-87.9684	-151.364	-10.177	-114.697	-183.323	0.529654	-68.0897	-182.244	-4.15782	-92.0804	-182.178	-20.1952	-124.058	-208.363	-8.02514	-58.7105	-206.333	-14.7016	-83.4053	-209.139	-33.3204	-111.296	-222.257	-18.1294	-42.2244	-227.255	-27.3009	-69.7798	-228.213	-37.7062	-87.6595	-207.634	4.0207	-4.86162	-207.077	5.64548	23.8477	-173.677	7.71222	6.34662	
2	0.0166667	-147.614	-14.8476	19.6598	-129.2	-18.0623	-1.39465	-111.924	-21.5415	-31.6653	-105.357	-28.0114	-48.1655	-157.56	1.6991	-62.272	-156.225	-1.26955	-85.5916	-147.789	-8.18589	-110.533	-186.155	0.894266	-64.8726	-182.727	-5.00197	-93.0604	-179.153	-18.9296	-122.543	-203.616	-7.39546	-56.9298	-206.957	-17.1301	-87.1873	-210.17	-33.4138	-109.948	-224.143	-17.2585	-43.8402	-227.795	-26.9068	-67.5614	-226.244	-39.171	-86.618	-208.884	4.90971	-5.39473	-206.872	4.28094	23.4861	-175.813	7.37174	9.12978	
3	0.025	-144.569	-13.0816	15.2534	-129.874	-17.6617	-4.52194	-113.712	-21.6436	-29.704	-104.268	-28.1248	-46.8685	-160.665	1.48829	-61.8313	-152.104	-0.872789	-88.731	-153.465	-8.14862	-109.725	-184.158	1.1079	-63.4677	-183.311	-5.31474	-95.152	-182.104	-19.5345	-123.128	-203.608	-7.50099	-59.6793	-207.958	-16.5857	-85.9496	-208.281	-29.6287	-106.371	-219.913	-17.4909	-42.2131	-223.976	-24.4748	-67.4715	-227.383	-36.8089	-87.8843	-207.322	4.19609	-8.36618	-210.987	4.38635	22.3785	-174.655	8.26853	6.15079	
4	0.0333333	-149.022	-14.9092	18.3821	-128.504	-17.5856	-6.4127	-111.113	-22.0821	-28.5107	-101.976	-28.4322	-49.1738	-158.089	2.13034	-58.538	-153.947	-0.101785	-84.0795	-148.689	-7.04574	-109.571	-181.968	2.25677	-69.207	-180.481	-6.07586	-97.2509	-179.606	-17.8257	-122.198	-208.202	-9.11954	-58.7066	-206.828	-16.4937	-87.6228	-209.944	-33.0181	-109.766	-225.243	-18.4994	-45.103	-223.022	-24.3297	-66.0999	-227.417	-37.1654	-88.3065	-208.308	5.58122	-7.73839	-205.441	5.51477	20.9181	-175.411	7.10534	5.90307	
5	0.0416667	-148.482	-14.2879	14.1564	-129.879	-17.7224	-5.87021	-114.065	-21.6717	-32.595	-102.029	-28.5219	-50.5709	-157.388	1.87674	-57.4862	-156.562	-1.52283	-88.3509	-149.412	-7.76525	-109.764	-185.957	0.845167	-68.3552	-181.348	-4.6169	-94.9163	-182.617	-19.0806	-123.141	-208.812	-9.01874	-58.9946	-209.92	-17.2544	-87.1257	-211.761	-31.31	-107.398	-223.218	-16.9347	-44.8794	-223.828	-23.6188	-64.7075	-227.388	-38.9888	-86.6745	-204.982	5.42366	-4.46753	-207.822	4.33168	22.71	-172.194	7.26038	7.11904	
6	0.05	-146.147	-13.5243	14.5829	-127.626	-17.5408	-6.80295	-115.438	-23.6755	-28.6845	-104.805	-28.1987	-49.508	-161.318	1.87562	-62.8345	-153.329	-1.01988	-84.2999	-151.854	-8.27411	-110.247	-187.021	0.799246	-68.9762	-181.482	-4.19599	-92.7575	-180.988	-18.9136	-125.286	-204.177	-7.82612	-57.0666	-208.774	-15.9388	-84.4612	-208.359	-31.7074	-111.393	-225.573	-17.5665	-45.1765	-225.944	-26.3755	-69.8471	-227.178	-39.3262	-88.355	-203.774	3.62259	-4.33188	-209.251	4.43431	24.3581	-175.576	8.74712	8.44833	
7	0.0583333	-146.65	-13.8056	19.3349	-128.659	-18.459	-3.82458	-111.634	-21.2175	-31.8488	-101.21	-27.5333	-49.116	-160.268	2.80834	-61.4067	-152.497	-1.63908	-88.927	-152.703	-7.75056	-110.558	-185.249	1.02282	-68.5897	-182.634	-4.75001	-93.4865	-177.652	-20.5725	-127.188	-204.127	-7.38062	-58.3712	-211.107	-16.5795	-84.595	-210.898	-30.8785	-107.555	-225.259	-16.5047	-47.585	-225.364	-24.502	-66.4724	-225.853	-40.962	-90.2176	-209.271	3.8362	-4.22592	-209.159	4.65409	22.526	-172.733	10.0495	7.62384	
8	0.0666667	-146.868	-14.7381	16.3659	-129.605	-18.7519	-6.76733	-116.248	-22.7853	-30.6642	-104.073	-27.6636	-53.1444	-160.195	2.61461	-58.871	-153.843	-0.997046	-89.5907	-147.369	-9.48188	-114.327	-184.591	1.83321	-65.0093	-185.037	-5.46699	-96.8046	-180.203	-19.4141	-124.599	-206.229	-7.43126	-59.7717	-210.553	-15.7103	-84.2239	-207.654	-31.6378	-109.828	-225.557	-16.6741	-42.7841	-225.443	-23.6701	-65.2546	-227.451	-38.782	-88.6912	-206.432	3.69412	-5.80068	-209.493	3.60596	25.641	-174.264	7.20801	8.55766	
9	0.075	-149.161	-14.9647	17.8124	-125.739	-18.498	-5.68306	-111.376	-22.4925	-28.3378	-106.196	-29.7722	-49.4081	-159.2	2.22778	-60.2169	-156.768	-0.226006	-85.1378	-151.621	-7.53937	-112.118	-183.15	2.10721	-67.4642	-180.844	-3.96634	-94.891	-179.343	-18.7808	-123.25	-203.128	-6.65249	-61.1567	-211.408	-14.631	-82.9943	-209.265	-31.2603	-108.067	-221.056	-16.2269	-42.0377	-226.267	-24.9962	-67.7915	-225.731	-37.8894	-87.6202	-209.357	4.21364	-5.23841	-209.374	5.06074	21.5082	-173.443	7.86469	9.18231	
10	0.0833333	-147.366	-13.5252	15.9465	-128.361	-18.6201	-5.09975	-113.199	-23.469	-30.2111	-102.754	-29.3197	-51.076	-161.728	1.78703	-61.4644	-154.004	-0.812145	-85.9922	-152.06	-8.94444	-113.978	-184.457	2.05878	-69.2012	-181.549	-4.22235	-93.7851	-182.683	-18.7306	-123.13	-209.084	-8.26062	-59.0617	-210.218	-14.6905	-83.6599	-207.897	-30.7136	-110.234	-221.298	-16.5113	-42.8829	-225.801	-24.0454	-67.9406	-225.691	-37.8062	-87.4787	-209.558	4.21991	-5.17268	-209.18	4.01247	20.2167	-176.102	8.86972	7.95702	
11	0.0916667	-150.959	-15.6978	18.1358	-126.061	-19.7597	-3.32158	-111.605	-24.5909	-28.5601	-106.296	-31.5386	-49.2023	-159.991	3.05632	-61.544	-153.638	-0.312602	-88.2803	-151.881	-7.21821	-110.335	-184.315	2.84131	-66.1223	-183.483	-3.31003	-95.9491	-180.352	-18.9119	-126.687	-207.003	-7.12746	-57.4304	-205.908	-13.526	-83.6089	-208.674	-28.7181	-107.558	-219.89	-15.3019	-48.4548	-223.585	-23.0557	-66.2035	-226.885	-39.0297	-89.6828	-209.567	6.31594	-7.1767	-211.939	4.98489	22.1531	-173.22	7.56502	6.33305	
12	0.1	-151.125	-14.3296	13.7595	-132.381	-22.6637	-6.11584	-112.293	-28.2519	-29.3514	-103.875	-34.2963	-49.8166	-159.111	4.58367	-62.145	-151.668	1.42953	-86.9959	-150.248	-6.01984	-109.07	-182.326	4.46627	-67.592	-182.544	-2.61777	-97.1574	-180.905	-16.893	-123.07	-207.941	-5.26977	-58.9912	-203.602	-13.0079	-87.2212	-205.266	-30.4838	-108.63	-223.252	-15.8478	-44.4912	-224.3	-23.0821	-66.4122	-222.22	-39.6765	-90.7369	-205.211	4.92363	-8.4334	-209.447	4.04036	24.514	-175.625	7.28427	9.0682	
13	0.108333	-149.716	-16.617	17.3471	-128.966	-24.1034	-7.82931	-114.994	-30.4166	-33.3312	-108.531	-38.9767	-54.0287	-163.866	5.69328	-58.351	-155.582	3.82829	-84.3933	-151.203	-7.18788	-112.364	-184.697	7.57728	-68.286	-181.218	0.033785	-96.4264	-178.382	-17.051	-121.554	-204.736	-2.5734	-60.3776	-204.837	-10.3792	-84.081	-201.932	-30.9935	-105.748	-219.035	-13.2777	-48.4301	-221.514	-25.6168	-71.6056	-216.055	-42.0302	-88.3375	-206.688	4.86214	-7.63261	-210.024	5.58829	22.8106	-176.342	10.0331	12.0334	
14	0.116667	-148.812	-15.3875	16.7093	-132.186	-25.7237	-6.12635	-118.775	-33.432	-33.2393	-116.459	-40.961	-55.5436	-164.673	8.55445	-60.133	-158.008	5.1154	-85.379	-152.334	-6.88983	-110.261	-184.625	10.0166	-63.3806	-181.499	3.31341	-94.1485	-179.994	-21.9448	-122.535	-204.227	0.312187	-58.143	-203.847	-9.26289	-85.8727	-198.331	-31.9156	-101.628	-222.843	-12.5767	-48.292	-221.695	-22.1333	-68.7193	-212.71	-47.2641	-86.3567	-211.74	5.83326	-3.44723	-209.916	2.77168	23.1908	-178.503	10.2047	10.5872	
